<svg width="120" height="31" viewBox="0 0 120 31" fill="none" xmlns="http://www.w3.org/2000/svg">
<g clip-path="url(#clip0)">
<path d="M5.01777 12.7733C4.34346 12.7775 3.67749 12.9228 3.0628 13.2001C2.4481 13.4773 1.89832 13.8803 1.44888 14.383C0.972061 14.8826 0.598613 15.4715 0.349974 16.1159C0.101334 16.7602 -0.0176015 17.4474 -6.53518e-06 18.1378C-0.00327391 18.8319 0.13271 19.5196 0.399899 20.1602C0.667088 20.8008 1.06006 21.3813 1.55555 21.8674C2.01892 22.3595 2.58131 22.7478 3.20566 23.0067C3.83001 23.2657 4.50214 23.3894 5.17777 23.3696C5.85469 23.3734 6.52479 23.2343 7.14434 22.9616C7.76389 22.6888 8.31896 22.2885 8.77333 21.7867C9.70731 20.7523 10.2154 19.4029 10.1956 18.0094C10.1759 16.6159 9.62964 15.2815 8.66666 14.2741C8.19789 13.7818 7.63071 13.3937 7.00202 13.1352C6.37334 12.8766 5.69725 12.7533 5.01777 12.7733V12.7733Z" fill="#FF7F00"/>
<path d="M57.1237 5.95629C55.5042 5.92271 53.8946 6.21675 52.3915 6.82074C50.8885 7.42474 49.523 8.32623 48.377 9.4711C47.2483 10.5944 46.3522 11.9293 45.7398 13.3993C45.1275 14.8694 44.8111 16.4457 44.8086 18.0382C44.8061 19.6306 45.1177 21.2079 45.7254 22.6799C46.3331 24.1518 47.2251 25.4894 48.3504 26.6163C50.0454 28.314 52.2063 29.4701 54.5592 29.9383C56.9121 30.4064 59.3511 30.1653 61.5668 29.2457C63.7825 28.326 65.6754 26.7692 67.0053 24.7726C68.3352 22.7759 69.0423 20.4294 69.037 18.0304C69.0546 16.4449 68.7525 14.8722 68.1486 13.4061C67.5447 11.9401 66.6514 10.6108 65.5222 9.49777C64.4382 8.3654 63.1339 7.467 61.6894 6.85793C60.245 6.24885 58.6912 5.942 57.1237 5.95629ZM60.5859 21.7867C60.1354 22.2932 59.5811 22.6968 58.9606 22.9699C58.3402 23.2431 57.6682 23.3794 56.9904 23.3696C56.3151 23.3868 55.6437 23.262 55.0197 23.0032C54.3957 22.7444 53.8331 22.3575 53.3681 21.8674C52.8747 21.3798 52.4831 20.7989 52.2161 20.1587C51.9491 19.5184 51.8119 18.8315 51.8126 18.1378C51.7862 17.4461 51.901 16.7562 52.1501 16.1104C52.3993 15.4646 52.7774 14.8763 53.2615 14.3815C53.7109 13.8788 54.2607 13.4758 54.8754 13.1986C55.4901 12.9213 56.1561 12.776 56.8304 12.7718C57.5064 12.7494 58.1793 12.8718 58.8041 13.1309C59.4288 13.39 59.9909 13.7798 60.4526 14.2741C61.436 15.2658 61.9861 16.607 61.9822 18.0037C62.0182 18.696 61.913 19.3884 61.6729 20.0387C61.4329 20.689 61.063 21.2837 60.5859 21.7867V21.7867Z" fill="white"/>
<path d="M31.017 5.9563C29.136 5.937 27.2746 6.34051 25.5704 7.13704V0H18.7015V18.0844C18.7061 20.4791 19.4197 22.8188 20.7524 24.8084C22.0852 26.798 23.9772 28.3483 26.19 29.2638C28.4027 30.1794 30.8371 30.4191 33.1859 29.9528C35.5348 29.4865 37.6929 28.3351 39.3881 26.6437C40.535 25.5314 41.4411 24.1954 42.0503 22.7184C42.6595 21.2415 42.9588 19.6552 42.9296 18.0578C42.9472 16.4723 42.6451 14.8996 42.0412 13.4335C41.4372 11.9675 40.544 10.6382 39.4148 9.52519C38.3362 8.38412 37.0336 7.47814 35.5885 6.86402C34.1434 6.24989 32.5871 5.94086 31.017 5.9563V5.9563ZM34.4244 21.8407C33.9617 22.3373 33.4007 22.732 32.7771 22.9998C32.1534 23.2676 31.4809 23.4026 30.8022 23.3963C30.127 23.4059 29.4574 23.2722 28.8376 23.0041C28.2179 22.7359 27.662 22.3394 27.2067 21.8407C26.7202 21.3451 26.337 20.7579 26.0791 20.1131C25.8213 19.4683 25.6939 18.7788 25.7044 18.0844C25.6859 16.6875 26.2157 15.339 27.18 14.3281C27.6439 13.8367 28.2033 13.4452 28.8239 13.1777C29.4444 12.9101 30.1131 12.7721 30.7889 12.7721C31.4647 12.7721 32.1334 12.9101 32.7539 13.1777C33.3745 13.4452 33.9339 13.8367 34.3978 14.3281C35.3419 15.3497 35.8685 16.6882 35.8735 18.0793C35.8784 19.4703 35.3613 20.8125 34.4244 21.8407V21.8407Z" fill="white"/>
<path d="M94.0704 6.54667H86.4229L78.2933 17.7622V0H71.3978V29.6756H76.7637L82.72 21.68L88.5155 29.6489H96.4037L86.6111 16.5015L94.0704 6.54667Z" fill="white"/>
<path d="M113.067 6.52001V18.0578C113.032 19.4754 112.445 20.8231 111.43 21.8141C110.968 22.3106 110.407 22.7053 109.783 22.9731C109.159 23.241 108.487 23.376 107.808 23.3696C107.133 23.3792 106.463 23.2455 105.844 22.9774C105.224 22.7093 104.668 22.3128 104.213 21.8141C103.193 20.8271 102.604 19.4769 102.576 18.0578V6.54668H95.6807V18.0578C95.6701 19.6566 95.9761 21.2417 96.581 22.7217C97.1859 24.2017 98.0777 25.5473 99.2051 26.681C100.333 27.8146 101.673 28.7139 103.15 29.327C104.626 29.9401 106.21 30.2548 107.809 30.2531C109.407 30.2513 110.99 29.9331 112.465 29.3167C113.941 28.7004 115.279 27.7982 116.404 26.662C117.529 25.5259 118.418 24.1783 119.02 22.697C119.621 21.2157 119.924 19.6299 119.91 18.0311V6.49335H113.067V6.52001Z" fill="white"/>
</g>
<defs>
<clipPath id="clip0">
<rect width="120" height="30.3704" fill="white"/>
</clipPath>
</defs>
</svg>
