<svg xmlns="http://www.w3.org/2000/svg" width="162" height="41"><path d="M6.774 17.244a6.516 6.516 0 00-4.818 2.173A7.081 7.081 0 000 24.486a7.007 7.007 0 002.1 5.035 6.458 6.458 0 004.89 2.028 6.5 6.5 0 004.854-2.137A7.451 7.451 0 0011.7 19.27a6.536 6.536 0 00-4.926-2.026z" fill="#ff7f00"/><g fill="#fff"><path d="M77.117 8.041a16.231 16.231 0 00-11.808 4.745 16.353 16.353 0 00-.036 23.146A16.354 16.354 0 0093.2 24.341a15.926 15.926 0 00-4.745-11.519 15.5 15.5 0 00-11.338-4.781zm4.674 21.371a6.373 6.373 0 01-4.854 2.137 6.512 6.512 0 01-4.89-2.028 7.069 7.069 0 01-2.1-5.035 6.876 6.876 0 011.956-5.071 6.516 6.516 0 014.818-2.173 6.4 6.4 0 014.89 2.028 7.123 7.123 0 012.065 5.035 6.9 6.9 0 01-1.885 5.107z"/><path d="M41.873 8.041a16.955 16.955 0 00-7.353 1.594V0h-9.273v24.414a16.367 16.367 0 0027.927 11.555 15.746 15.746 0 004.781-11.591 15.926 15.926 0 00-4.745-11.519 15.392 15.392 0 00-11.337-4.818zm4.6 21.444a6.6 6.6 0 01-4.89 2.1 6.449 6.449 0 01-4.854-2.1 7.086 7.086 0 01-2.028-5.071 7.208 7.208 0 011.992-5.071 6.7 6.7 0 019.744 0 7.5 7.5 0 01.036 10.142z"/><path d="M126.995 8.838h-10.324l-10.975 15.141V0h-9.309v40.062h7.244l8.041-10.794 7.824 10.758h10.649l-13.22-17.749z"/><path d="M152.641 8.802v15.576a7.346 7.346 0 01-2.21 5.071 6.6 6.6 0 01-4.89 2.1 6.449 6.449 0 01-4.854-2.1 7.259 7.259 0 01-2.21-5.071V8.838h-9.308v15.54a16.355 16.355 0 1032.709-.036V8.766h-9.237z"/></g></svg>